HIERARCHY
ROOT Hips
{
  OFFSET -35.4901 99.2528 17.4586
  CHANNELS 6 Xposition Yposition Zposition Zrotation Xrotation Yrotation
  JOINT LeftUpLeg
  {
    OFFSET 8.64259 1.95398 -2.38835
    CHANNELS 3 Zrotation Xrotation Yrotation
    JOINT LeftLeg
    {
      OFFSET 43.7702 0 0
      CHANNELS 3 Zrotation Xrotation Yrotation
      JOINT LeftFoot
      {
        OFFSET 40.6238 0 0
        CHANNELS 3 Zrotation Xrotation Yrotation
        JOINT LeftToeBase
        {
          OFFSET 12.7242 0 0
          CHANNELS 3 Zrotation Xrotation Yrotation
          End Site
          {
            OFFSET 0 0 0
          }
        }
      }
    }
  }
  JOINT RightUpLeg
  {
    OFFSET -8.2249 1.95398 -2.59336
    CHANNELS 3 Zrotation Xrotation Yrotation
    JOINT RightLeg
    {
      OFFSET 43.5653 0 0
      CHANNELS 3 Zrotation Xrotation Yrotation
      JOINT RightFoot
      {
        OFFSET 40.6238 0 0
        CHANNELS 3 Zrotation Xrotation Yrotation
        JOINT RightToeBase
        {
          OFFSET 12.7242 0 0
          CHANNELS 3 Zrotation Xrotation Yrotation
          End Site
          {
            OFFSET 0 0 0
          }
        }
      }
    }
  }
  JOINT Spine
  {
    OFFSET 0.165834 0.87714 6.61349
    CHANNELS 3 Zrotation Xrotation Yrotation
    JOINT Spine1
    {
      OFFSET 7.38963 1.71661e-005 0
      CHANNELS 3 Zrotation Xrotation Yrotation
      JOINT Spine2
      {
        OFFSET 11.9445 1.14441e-005 0
        CHANNELS 3 Zrotation Xrotation Yrotation
        JOINT Spine3
        {
          OFFSET 14.7254 4.19617e-005 0
          CHANNELS 3 Zrotation Xrotation Yrotation
          JOINT Spine4
          {
            OFFSET 10.9679 0 0
            CHANNELS 3 Zrotation Xrotation Yrotation
            JOINT RightShoulder
            {
              OFFSET 2.46616 -1.6653 3.69651
              CHANNELS 3 Zrotation Xrotation Yrotation
              JOINT RightArm
              {
                OFFSET 13.0012 0 0
                CHANNELS 3 Zrotation Xrotation Yrotation
                JOINT RightForeArm
                {
                  OFFSET 28.7848 1.52588e-005 0
                  CHANNELS 3 Zrotation Xrotation Yrotation
                  JOINT RightHand
                  {
                    OFFSET 26.5688 1.52588e-005 0
                    CHANNELS 3 Zrotation Xrotation Yrotation
                    End Site
                    {
                      OFFSET 0 0 0
                    }
                  }
                }
              }
            }
            JOINT LeftShoulder
            {
              OFFSET 2.38034 -1.29275 -3.7523
              CHANNELS 3 Zrotation Xrotation Yrotation
              JOINT LeftArm
              {
                OFFSET 16.3182 6.10351e-005 0
                CHANNELS 3 Zrotation Xrotation Yrotation
                JOINT LeftForeArm
                {
                  OFFSET 27.0901 0 0
                  CHANNELS 3 Zrotation Xrotation Yrotation
                  JOINT LeftHand
                  {
                    OFFSET 24.5451 1.52588e-005 0
                    CHANNELS 3 Zrotation Xrotation Yrotation
                    End Site
                    {
                      OFFSET 0 0 0
                    }
                  }
                }
              }
            }
            JOINT Neck
            {
              OFFSET 5.0226 -0.0266342 0
              CHANNELS 3 Zrotation Xrotation Yrotation
              JOINT Head
              {
                OFFSET 6.69364 2.86102e-005 0
                CHANNELS 3 Zrotation Xrotation Yrotation
                End Site
                {
                  OFFSET 0 0 0
                }
              }
            }
          }
        }
      }
    }
  }
}
MOTION
Frames:	12
Frame Time:	0.0416667
-5.09946 97.4939 357.956 -144.791 -82.0223 -145.156 -176.192 -7.05163 92.0115 -6.90494 2.48255 0.185713 67.8624 4.31248 0.0577666 21.3315 -1.24044 2.44559 170.559 -3.01371 86.6008 -9.7891 -14.5655 -2.34215 65.4528 -2.80371 0.418312 26.2684 -1.22038 3.4332 0.465015 7.541 -90.3333 11.7941 0.768172 -0.746022 0.12317 0.734586 -0.779121 -22.413 0.956854 -0.480676 -2.40032 0.956857 -0.480671 91.221 -28.7436 -104.776 42.53 -12.8129 -6.25097 7.23188 -27.0618 -11.629 -30.2515 -0.122184 -7.17137 -84.8277 -52.457 86.8048 -25.778 17.967 -17.4686 -0.0855223 6.14485 -6.15063 -4.41074 -0.0539534 -6.4253 4.60955 -2.71561 0.0303373 -9.22531 -2.73459 0.77991 
-5.12737 97.4866 357.953 -144.59 -82.0295 -144.793 -175.978 -6.8799 92.3869 -7.15784 2.13915 0.102317 69.8816 5.01171 -1.73023 16.0839 -2.77844 4.71714 170.557 -3.0961 86.7438 -9.63687 -14.9265 -2.23795 65.4984 -2.88442 0.134538 26.0214 -1.02199 2.94702 0.43062 7.52374 -90.3192 11.8291 0.706242 -0.711673 0.158147 0.674244 -0.742069 -22.3778 0.887477 -0.466508 -2.36515 0.887476 -0.466512 90.4607 -29.5899 -105.989 41.8936 -12.4061 -5.92184 4.23108 -27.4149 -14.1556 -30.8595 -0.587063 -5.27677 -85.2003 -50.773 86.0416 -26.3803 18.5982 -16.5871 -0.189012 5.48989 -7.26331 -3.62171 -0.0419797 -8.9465 4.12656 -2.54002 -1.43202 -8.91054 -2.39846 2.32306 
-5.22356 97.495 357.97 -145.078 -82.3114 -145.309 -176.067 -6.76985 92.4184 -6.99594 2.14348 0.264053 69.5655 4.8448 -2.17305 16.7054 -2.69904 4.59586 170.537 -2.97191 86.7894 -9.5114 -14.7625 -2.13826 65.3565 -2.82972 -0.0295032 26.1622 -1.17855 3.33152 0.301128 7.53588 -90.1303 11.8026 0.537641 -0.316805 0.131668 0.523179 -0.340168 -22.4043 0.607991 -0.140575 -2.39162 0.607993 -0.140573 88.5455 -32.1004 -108.769 40.0497 -12.246 -6.28247 4.83963 -26.5087 -13.7162 -30.8033 -0.502722 -5.53737 -84.6326 -47.7412 86.5082 -28.5621 16.0175 -15.9356 2.19433 10.508 -7.69475 -5.19603 -0.00618595 -7.70887 4.05505 -2.33548 -2.48417 -8.68523 -1.91841 0.816897 
-5.55822 97.5143 357.97 -149.675 -82.7501 -149.922 -175.399 -6.62543 93.0775 -6.86156 3.60586 -0.247716 69.4176 4.9066 -2.1257 16.7186 -2.65804 4.54053 170.761 -2.8807 87.1348 -9.85697 -14.2603 -2.15257 65.1306 -2.68408 -0.374765 26.4507 -1.12823 3.18945 0.273306 7.53328 -90.1916 11.8081 0.453455 -0.430286 0.137196 0.434082 -0.449836 -22.3983 0.561801 -0.274113 -2.38567 0.561807 -0.274114 88.9109 -31.3771 -108.353 40.5681 -11.9293 -6.06103 4.22802 -26.4968 -13.7483 -27.4787 -0.298474 -6.4823 -84.7368 -49.0463 86.5158 -27.0015 17.1071 -16.1889 1.47694 9.65573 -8.0117 -6.01844 0.0229298 -8.19347 3.77558 -2.27146 -1.22568 -8.3306 -2.02444 -0.0976477 
-6.04999 97.4823 357.865 -152.702 -82.4198 -153.05 -174.801 -6.78366 93.6698 -7.23166 3.76983 -0.601835 69.6483 5.1323 -2.83819 16.8547 -2.45034 4.25901 170.929 -2.94192 87.3662 -10.7847 -13.8875 -2.20767 65.5192 -2.77702 -0.582888 26.2506 -1.09708 3.12259 0.285154 7.60443 -90.1816 11.6658 0.482142 -0.412174 -0.00511598 0.463529 -0.433005 -22.5408 0.583717 -0.248215 -2.52811 0.583719 -0.248225 88.7692 -31.743 -108.48 39.9368 -12.1749 -5.71208 3.78225 -25.5248 -14.4101 -23.2993 -0.0785578 -7.84057 -84.3151 -49.909 87.2628 -26.2164 15.753 -16.9322 1.8396 10.3337 -7.09743 0.117346 -0.123249 -5.87559 2.50928 -2.7672 -0.846718 -7.08282 -2.54674 -1.14625 
-6.68566 97.4201 357.502 -152.406 -82.3196 -153.241 -174.323 -6.25778 93.9248 -7.9046 4.21968 -1.11103 69.5232 5.34155 -2.99735 16.8415 -2.8977 4.86498 170.936 -2.06622 87.3282 -12.2836 -13.9545 -2.19939 66.2182 -2.98888 -0.800452 26.0866 -0.978373 2.83398 0.381971 7.6395 -90.0838 11.5958 0.72061 -0.241474 -0.0749592 0.709291 -0.272957 -22.6117 0.759863 -0.0137198 -2.59907 0.759866 -0.0137199 88.4108 -31.9724 -109.075 39.8975 -11.5485 -5.73734 4.79119 -26.2182 -13.4909 -26.2386 -0.225779 -6.8643 -84.0249 -50.2941 87.7454 -25.03 15.8125 -16.4383 1.485 6.82799 -8.26373 0.829049 -0.19904 -8.26068 3.15588 -2.16418 -1.43675 -8.25886 -1.9127 0.331144 
-7.68191 97.2734 356.714 -163.123 -82.6553 -164.493 -173.786 -4.16796 94.1682 -10.8086 6.48147 -1.29162 69.7065 5.54913 -2.93977 17.8244 -2.92257 4.90034 171.407 -1.07367 87.8424 -14.0713 -12.1926 -2.36812 67.0603 -3.07661 -1.32848 25.0153 -1.13232 3.28096 0.401509 7.73727 -90.0468 11.4 0.777113 -0.171911 -0.270759 0.768788 -0.205954 -22.8078 0.792844 0.0696059 -2.79512 0.792846 0.0696027 88.4411 -31.4214 -109.242 39.8393 -11.7184 -5.73553 4.06759 -25.9989 -14.0965 -24.8805 -0.178899 -7.20685 -83.7719 -51.5635 88.2619 -24.6197 13.3956 -16.2109 1.99509 3.27098 -8.29519 -0.819228 -0.156756 -9.10104 2.24797 -2.86497 0.108791 -6.81249 -2.77684 -1.9096 
-8.90722 96.9122 355.302 175.461 -83.4032 173.318 -174.019 1.0395 94.2014 -16.7602 9.43655 -0.606643 69.5471 5.51649 -2.35091 19.1946 -3.57544 5.83482 171.196 1.64732 87.746 -17.4645 -10.129 -1.69312 68.6338 -3.30636 -2.24312 23.6273 -1.29066 3.73408 0.455089 7.8277 -89.9541 11.2191 0.927142 0.000353079 -0.451553 0.926245 -0.0404592 -22.9892 0.884161 0.278996 -2.97655 0.884167 0.279007 88.7391 -30.8116 -108.913 40.0404 -11.8626 -6.00475 4.09383 -26.9238 -14.1445 -23.9538 -0.045234 -8.15538 -83.9945 -51.9444 87.9729 -21.5184 13.5665 -14.6656 2.05093 1.68233 -12.6348 2.54315 -0.13595 -6.17263 2.86311 -3.96914 2.10366 -6.02829 -4.06701 -5.50253 
-10.1728 96.32 353.442 139.726 -82.7919 136.76 -173.837 8.22453 94.0038 -24.3594 14.1908 -0.485383 67.9479 4.59327 -2.57962 20.3023 -3.32015 5.48716 170.348 5.56425 87.6797 -21.0802 -7.22347 -0.411712 70.1849 -3.26542 -2.50115 22.7595 -1.72089 4.76793 0.427276 7.86872 -89.8305 11.1356 0.929235 0.246943 -0.53502 0.939214 0.2058 -23.0721 0.812053 0.514817 -3.05949 0.812071 0.514826 88.8538 -30.7538 -108.713 40.1001 -11.4287 -5.43243 4.04648 -26.3597 -14.7996 -24.6804 -0.0398563 -7.99658 -83.7166 -51.0431 88.2895 -21.8273 10.2995 -14.9477 4.50288 5.47233 -13.2977 0.676756 -0.14434 -6.3916 4.23679 -5.86403 0.961594 -4.40812 -5.83454 -5.03947 
-11.0682 95.8828 352.161 124.57 -79.8286 121.182 -173.218 12.3648 93.8417 -33.4736 14.1502 -0.356 74.2968 6.72689 -5.44581 10.9658 -10.1854 13.6091 169.926 7.07738 87.6693 -23.4272 -3.82276 0.242658 71.4248 -2.78557 -2.35518 21.3363 -1.85205 5.08802 0.388731 7.98966 -89.8402 10.8938 0.847883 0.23803 -0.77688 0.857533 0.200473 -23.3136 0.737137 0.481854 -3.30099 0.737132 0.481849 89.0336 -30.5973 -108.426 39.3541 -10.6538 -4.64542 4.39515 -26.228 -14.1085 -24.6281 -0.0101482 -8.14352 -84.4442 -50.0051 87.08 -23.2874 8.55744 -12.3973 4.55299 3.0518 -13.5306 0.668521 -0.158969 -6.53628 5.03762 -6.6382 -0.221556 -3.30321 -6.42804 -4.96077 
-11.5352 95.7742 351.296 123.28 -77.6901 119.739 -172.595 13.8212 93.9606 -45.8838 14.1504 0.857359 71.0606 5.7327 -3.50384 20.5189 -3.26829 5.53736 169.577 7.10857 87.5747 -24.5243 -2.65081 0.600049 71.5 -2.5779 -2.48841 21.3381 -1.86707 5.12043 0.336674 8.00019 -89.8582 10.873 0.735884 0.212999 -0.797749 0.744544 0.180393 -23.3341 0.637845 0.424319 -3.32142 0.637846 0.424319 89.4952 -30.6687 -107.495 39.8205 -9.3987 -3.15711 4.57351 -25.334 -13.5137 -24.9145 -0.0141517 -7.95262 -83.9237 -49.8414 87.8473 -22.9347 11.0274 -10.2562 2.96864 2.66398 -11.0403 -4.73445 0.137164 -9.60057 3.3845 -6.67367 -1.64194 -3.13086 -6.24076 -4.97988 
-11.5818 95.5915 350.562 124.958 -76.4068 121.63 -171.552 11.1239 95.1304 -52.9808 16.9485 2.16592 69.8018 5.25654 -2.30082 20.9211 -3.06666 5.12865 169.45 6.7338 87.6535 -25.1421 -2.21123 0.777255 71.8641 -2.58042 -2.67321 20.8375 -1.7375 4.83932 0.163913 7.9681 -89.9134 10.9373 0.366452 0.13743 -0.733558 0.372141 0.121158 -23.269 0.308197 0.241206 -3.25632 0.308208 0.241206 89.7603 -31.0327 -106.838 40.4546 -8.71429 -1.33309 4.49675 -24.3788 -13.6613 -24.538 0.0994862 -8.46398 -84.04 -49.4708 87.6291 -25.3549 8.12833 -6.5847 3.83722 3.72622 -8.2867 -3.78716 0.00990457 -7.48653 2.37266 -6.1141 -2.07535 -4.07327 -5.6008 -5.47945 
